<svg width="26" height="18" viewBox="0 0 26 18" fill="none" xmlns="http://www.w3.org/2000/svg">
<rect x="1.39258" y="0.742188" width="24.0421" height="16.3566" rx="3.5" fill="#006FCF" stroke="#F3F3F3"/>
<path fill-rule="evenodd" clip-rule="evenodd" d="M6.01463 12.7796V9.20652H10.0402L10.4721 9.73566L10.9183 9.20652H25.5302V12.5332C25.5302 12.5332 25.148 12.776 24.7061 12.7796H16.6152L16.1283 12.2164V12.7796H14.5325V11.8181C14.5325 11.8181 14.3146 11.9524 13.8433 11.9524H13.3002V12.7796H10.8842L10.4529 12.2391L10.015 12.7796H6.01463ZM1.32428 6.51352L2.23001 4.52455H3.79637L4.31038 5.63869V4.52455H6.2575L6.5635 5.32982L6.86014 4.52455H15.6007V4.92938C15.6007 4.92938 16.0602 4.52455 16.8154 4.52455L19.6514 4.53389L20.1565 5.63344V4.52455H21.7859L22.2344 5.15616V4.52455H23.8788V8.09765H22.2344L21.8046 7.46399V8.09765H19.4106L19.1698 7.5344H18.5262L18.2894 8.09765H16.6659C16.0161 8.09765 15.6007 7.70108 15.6007 7.70108V8.09765H13.1528L12.667 7.5344V8.09765H3.56432L3.32373 7.5344H2.68219L2.4433 8.09765H1.32428V6.51352ZM1.329 7.64042L2.55063 4.965H3.47678L4.69724 7.64042H3.88438L3.66014 7.10468H2.34975L2.12434 7.64042H1.329ZM3.40208 6.52386L3.00265 5.58768L2.60206 6.52386H3.40208ZM4.7813 7.64002V4.96459L5.91152 4.96855L6.5689 6.69349L7.21053 4.96459H8.33172V7.64002H7.62164V5.66865L6.86893 7.64002H6.24619L5.49138 5.66865V7.64002H4.7813ZM8.81757 7.64002V4.96459H11.1347V5.56304H9.53513V6.02068H11.0973V6.58393H9.53513V7.05917H11.1347V7.64002H8.81757ZM11.5457 7.64042V4.965H13.1259C13.6495 4.965 14.1186 5.26997 14.1186 5.83298C14.1186 6.31426 13.7231 6.62426 13.3396 6.65474L14.2739 7.64042H13.4062L12.5548 6.68995H12.2558V7.64042H11.5457ZM13.0676 5.56343H12.2559V6.12668H13.0781C13.2204 6.12668 13.4039 6.0228 13.4039 5.84506C13.4039 5.7069 13.2623 5.56343 13.0676 5.56343ZM15.1336 7.64002H14.4085V4.96459H15.1336V7.64002ZM16.8527 7.64002H16.6962C15.939 7.64002 15.4792 7.07809 15.4792 6.31331C15.4792 5.52963 15.9338 4.96459 16.8901 4.96459H17.6749V5.59825H16.8614C16.4732 5.59825 16.1987 5.88359 16.1987 6.31991C16.1987 6.83803 16.5126 7.05565 16.9648 7.05565H17.1517L16.8527 7.64002ZM17.1763 7.64042L18.3979 4.965H19.3241L20.5445 7.64042H19.7317L19.5074 7.10468H18.197L17.9716 7.64042H17.1763ZM19.2494 6.52386L18.85 5.58768L18.4494 6.52386H19.2494ZM20.6274 7.64002V4.96459H21.5302L22.6829 6.64553V4.96459H23.393V7.64002H22.5194L21.3375 5.91507V7.64002H20.6274ZM6.50044 12.322V9.64658H8.81757V10.245H7.21801V10.7027H8.78019V11.2659H7.21801V11.7412H8.81757V12.322H6.50044ZM17.8543 12.322V9.64658H20.1715V10.245H18.5719V10.7027H20.1266V11.2659H18.5719V11.7412H20.1715V12.322H17.8543ZM8.90745 12.322L10.0356 11.0008L8.88059 9.64658H9.7752L10.4631 10.4837L11.1533 9.64658H12.0129L10.873 10.9843L12.0033 12.322H11.1088L10.4409 11.498L9.78922 12.322H8.90745ZM12.0877 12.3224V9.64699H13.6562C14.2998 9.64699 14.6758 10.0377 14.6758 10.5469C14.6758 11.1615 14.1964 11.4775 13.564 11.4775H12.8165V12.3224H12.0877ZM13.6036 10.252H12.8165V10.8681H13.6013C13.8087 10.8681 13.954 10.7386 13.954 10.5601C13.954 10.37 13.8079 10.252 13.6036 10.252ZM14.9841 12.322V9.64658H16.5643C17.0879 9.64658 17.557 9.95155 17.557 10.5145C17.557 10.9958 17.1615 11.3058 16.778 11.3363L17.7124 12.322H16.8446L15.9932 11.3715H15.6942V12.322H14.9841ZM16.506 10.245H15.6943V10.8082H16.5165C16.6588 10.8082 16.8423 10.7044 16.8423 10.5266C16.8423 10.3885 16.7007 10.245 16.506 10.245ZM20.5003 12.322V11.7412H21.9214C22.1317 11.7412 22.2227 11.6341 22.2227 11.5167C22.2227 11.4043 22.132 11.2906 21.9214 11.2906H21.2792C20.721 11.2906 20.4101 10.9702 20.4101 10.4892C20.4101 10.0603 20.6948 9.64658 21.5243 9.64658H22.9071L22.6081 10.2485H21.4122C21.1836 10.2485 21.1132 10.3615 21.1132 10.4694C21.1132 10.5804 21.2002 10.7027 21.3748 10.7027H22.0475C22.6698 10.7027 22.9398 11.0351 22.9398 11.4705C22.9398 11.9386 22.6389 12.322 22.0137 12.322H20.5003ZM23.0025 12.322V11.7412H24.4236C24.6339 11.7412 24.7249 11.6341 24.7249 11.5167C24.7249 11.4043 24.6341 11.2906 24.4236 11.2906H23.7814C23.2232 11.2906 22.9123 10.9702 22.9123 10.4892C22.9123 10.0603 23.197 9.64658 24.0265 9.64658H25.4093L25.1103 10.2485H23.9144C23.6858 10.2485 23.6154 10.3615 23.6154 10.4694C23.6154 10.5804 23.7024 10.7027 23.877 10.7027H24.5497C25.172 10.7027 25.442 11.0351 25.442 11.4705C25.442 11.9386 25.1411 12.322 24.5158 12.322H23.0025Z" fill="white"/>
</svg>
