<svg width="35" height="6" viewBox="0 0 35 6" fill="none" xmlns="http://www.w3.org/2000/svg">
<path fill-rule="evenodd" clip-rule="evenodd" d="M31.7313 0.210492C32.9505 0.210492 33.6211 0.775113 33.6211 1.84162C33.682 2.65718 33.1334 3.34728 32.4019 3.47275L34.0478 5.79397H32.7676L31.3656 3.53548H31.2437V5.79397H30.2074V0.210492H31.7313ZM31.2437 2.7827H31.5485C32.219 2.7827 32.5238 2.46902 32.5238 1.9044C32.5238 1.40251 32.219 1.08883 31.5485 1.08883H31.2437V2.7827ZM26.6108 5.79397H29.5369V4.85293H27.6471V3.34728H29.4759V2.40624H27.6471V1.15153H29.5369V0.210492H26.6108V5.79397V5.79397ZM23.5628 3.97463L22.1608 0.210492H21.0635L23.319 5.91944H23.8676L26.1231 0.210492H25.0258L23.5628 3.97463V3.97463ZM11.1883 3.03357C11.1883 4.60196 12.4075 5.91941 13.9315 5.91941C14.4191 5.91941 14.8458 5.79394 15.2726 5.60573V4.35101C14.9678 4.72743 14.541 4.97837 14.0534 4.97837C13.078 4.97837 12.2856 4.22554 12.2856 3.22177V3.0963C12.2246 2.09253 13.0171 1.21423 13.9924 1.1515C14.4801 1.1515 14.9678 1.40244 15.2726 1.77885V0.524139C14.9068 0.273196 14.4191 0.21046 13.9924 0.21046C12.4075 0.084989 11.1883 1.40244 11.1883 3.03357V3.03357ZM9.29859 2.3435C8.689 2.09256 8.50613 1.96709 8.50613 1.65341C8.56708 1.277 8.87188 0.963317 9.23763 1.02605C9.54242 1.02605 9.84721 1.21426 10.091 1.4652L10.6397 0.712375C10.213 0.33596 9.66434 0.0850175 9.11571 0.0850175C8.26229 0.0222818 7.53079 0.712374 7.46983 1.59067V1.65341C7.46983 2.40624 7.77462 2.84539 8.74996 3.15907C8.99379 3.2218 9.23763 3.34727 9.48146 3.47275C9.66434 3.59822 9.78626 3.78642 9.78626 4.03737C9.78626 4.47652 9.4205 4.85293 9.05475 4.85293H8.99379C8.50613 4.85293 8.07942 4.53925 7.89654 4.1001L7.226 4.7902C7.59175 5.48029 8.32325 5.8567 9.05475 5.8567C10.0301 5.91944 10.8226 5.16661 10.8835 4.16284V3.97463C10.8226 3.2218 10.5178 2.84539 9.29859 2.3435V2.3435ZM5.76299 5.79397H6.79929V0.210492H5.76299V5.79397V5.79397ZM0.947266 0.210492H2.47123H2.77602C4.23903 0.273228 5.39724 1.52794 5.33628 3.0336C5.33628 3.84916 4.97053 4.60199 4.36095 5.16661C3.81232 5.60576 3.14177 5.85671 2.47123 5.79397H0.947266V0.210492ZM2.28837 4.85291C2.77604 4.91564 3.32467 4.72744 3.69042 4.41376C4.05617 4.03734 4.23905 3.53546 4.23905 2.97084C4.23905 2.46895 4.05617 1.96706 3.69042 1.59065C3.32467 1.27697 2.77604 1.08876 2.28837 1.1515H1.98358V4.85291H2.28837Z" fill="#151F25"/>
<path fill-rule="evenodd" clip-rule="evenodd" d="M18.3815 0.0810547C16.8575 0.0810547 15.5774 1.33577 15.5774 2.9669C15.5774 4.53529 16.7966 5.85274 18.3815 5.91547C19.9664 5.97821 21.1856 4.66076 21.2465 3.02963C21.1856 1.3985 19.9664 0.0810547 18.3815 0.0810547V0.0810547Z" fill="#FD6020"/>
</svg>
