<svg width="24" height="24" viewBox="0 0 24 24" fill="none" xmlns="http://www.w3.org/2000/svg">
<path d="M12.0625 2.06499C11.7729 1.93801 11.4876 2.02684 11.3041 2.21373C11.1259 2.39527 11.0367 2.67234 11.0992 2.9517C11.1979 3.39264 11.25 3.85139 11.25 4.32261C11.25 5.39845 10.9789 6.15196 10.5123 6.7766C10.038 7.41159 9.35149 7.92854 8.48466 8.51183C8.47103 8.521 8.45834 8.53149 8.44678 8.54314L8.34179 8.64894C6.48195 9.85049 5.25 11.9426 5.25 14.3226C5.25 18.0505 8.27208 21.0726 12 21.0726C15.7279 21.0726 18.75 18.0505 18.75 14.3226C18.75 13.2281 18.4893 12.1937 18.0264 11.2788C17.9887 11.2044 17.9164 11.1537 17.8336 11.1436C17.7508 11.1335 17.6684 11.1653 17.614 11.2285C17.5435 11.3102 17.4744 11.3909 17.4064 11.4704C16.5281 12.4966 15.8193 13.3247 14.3662 13.6946C14.3044 13.7104 14.266 13.6987 14.2387 13.6817C14.2067 13.6616 14.1716 13.6216 14.1476 13.5578C14.0975 13.4246 14.119 13.2549 14.2216 13.1436C14.9988 12.301 15.5509 11.1572 15.7482 9.53008C16.1177 6.48218 14.7325 3.23559 12.0625 2.06499Z" fill="url(#paint0_linear_1_840)"/>
<defs>
<linearGradient id="paint0_linear_1_840" x1="12" y1="2.00552" x2="12" y2="21.0726" gradientUnits="userSpaceOnUse">
<stop stop-color="#FFC736"/>
<stop offset="1" stop-color="#FF630C"/>
</linearGradient>
</defs>
</svg>
