<svg width="14" height="20" viewBox="0 0 14 20" fill="none" xmlns="http://www.w3.org/2000/svg">
<path d="M7.06254 0.0649919C6.77291 -0.061993 6.48765 0.026842 6.30414 0.213729C6.12588 0.395269 6.03673 0.672342 6.09923 0.951696C6.1979 1.39264 6.25 1.85139 6.25 2.32261C6.25 3.39845 5.97885 4.15196 5.5123 4.7766C5.03803 5.41159 4.35149 5.92854 3.48466 6.51183C3.47103 6.521 3.45834 6.53149 3.44678 6.54314L3.34179 6.64894C1.48195 7.85049 0.25 9.9426 0.25 12.3226C0.25 16.0505 3.27208 19.0726 7 19.0726C10.7279 19.0726 13.75 16.0505 13.75 12.3226C13.75 11.2281 13.4893 10.1937 13.0264 9.27884C12.9887 9.20442 12.9164 9.15368 12.8336 9.14357C12.7508 9.13345 12.6684 9.16529 12.614 9.22846C12.5435 9.31021 12.4744 9.39089 12.4064 9.47039C11.5281 10.4966 10.8193 11.3247 9.36616 11.6946C9.30436 11.7104 9.26597 11.6987 9.23873 11.6817C9.20667 11.6616 9.1716 11.6216 9.14757 11.5578C9.09748 11.4246 9.11897 11.2549 9.22161 11.1436C9.99879 10.301 10.5509 9.1572 10.7482 7.53008C11.1177 4.48218 9.73249 1.23559 7.06254 0.0649919Z" fill="url(#paint0_linear_103_301)"/>
<defs>
<linearGradient id="paint0_linear_103_301" x1="7" y1="0.00552368" x2="7" y2="19.0726" gradientUnits="userSpaceOnUse">
<stop stop-color="#FFC736"/>
<stop offset="1" stop-color="#FF630C"/>
</linearGradient>
</defs>
</svg>
