<svg width="21" height="16" viewBox="0 0 21 16" fill="none" xmlns="http://www.w3.org/2000/svg">
<path d="M15.3658 8.28647C15.8834 8.29806 16.4038 8.26292 16.9193 8.30473C17.4413 8.40509 17.5671 9.21952 17.1033 9.48625C16.7869 9.66196 16.411 9.5517 16.0679 9.58269H15.3658V8.28647ZM17.2185 6.81933C17.3335 7.23759 16.9422 7.61312 16.5514 7.55552H15.3658C15.3742 7.16109 15.3496 6.73298 15.3779 6.35931C15.8528 6.37309 16.3321 6.3312 16.8043 6.38122C17.0072 6.43375 17.177 6.60564 17.2185 6.81933ZM20.0717 0.616667C20.0937 1.41544 20.0749 2.25642 20.0812 3.0714C20.0797 6.38478 20.0843 9.69807 20.0787 13.0116C20.0578 14.2534 18.99 15.3324 17.7934 15.3572C16.5957 15.3622 15.3978 15.358 14.1999 15.3593V10.3502C15.5051 10.3433 16.8109 10.3643 18.1155 10.3397C18.7207 10.3005 19.3837 9.88898 19.4118 9.20258C19.4831 8.51322 18.8525 8.0364 18.2537 7.96109C18.0235 7.95493 18.0303 7.89195 18.2537 7.86447C18.8248 7.73727 19.2732 7.12814 19.1052 6.5181C18.962 5.87647 18.2739 5.62814 17.7015 5.62937C16.5345 5.6212 15.3672 5.62823 14.2002 5.62585C14.2077 4.69071 14.1844 3.75456 14.2127 2.8201C14.3052 1.60074 15.3999 0.59517 16.5796 0.616987C17.7438 0.616804 18.9078 0.616804 20.0717 0.616759V0.616667Z" fill="url(#paint0_linear_1_877)"/>
<path d="M1.01151 2.94639C1.04132 1.70659 2.11372 0.636436 3.30875 0.618316C4.50205 0.614528 5.69554 0.617769 6.88884 0.616673C6.88556 4.76479 6.89531 8.91337 6.88393 13.0613C6.83796 14.286 5.77725 15.3357 4.59523 15.3574C3.39967 15.3619 2.20397 15.3581 1.00837 15.3593V10.1813C2.1697 10.464 3.38754 10.5844 4.57229 10.3968C5.28048 10.2794 6.05532 9.92099 6.29509 9.1638C6.47153 8.5161 6.37219 7.83445 6.39846 7.16968V5.62586H4.34811C4.3389 6.6469 4.36698 7.66973 4.33328 8.68954C4.27801 9.31638 3.67567 9.71464 3.10202 9.69338C2.3906 9.70113 0.98082 9.16202 0.98082 9.16202C0.977277 7.24901 1.00146 4.85324 1.01151 2.94658V2.94639Z" fill="url(#paint1_linear_1_877)"/>
<path d="M7.65348 6.24859C7.54555 6.27219 7.63178 5.86972 7.60419 5.71705C7.61154 4.75173 7.58882 3.78537 7.61672 2.82074C7.70893 1.59623 8.81205 0.588145 9.99658 0.616807H13.4849C13.4817 4.76493 13.4914 8.9135 13.48 13.0614C13.434 14.2861 12.3732 15.3358 11.1912 15.3576C9.99556 15.3622 8.79983 15.3583 7.60414 15.3595V9.68625C8.42074 10.3768 9.5306 10.4842 10.5479 10.4861C11.3149 10.4858 12.0774 10.364 12.8222 10.1817V9.14234C11.9828 9.57347 10.9961 9.84732 10.0657 9.59963C9.41661 9.43313 8.94545 8.78666 8.95594 8.09633C8.88074 7.37844 9.28906 6.62052 9.9736 6.4071C10.8235 6.13289 11.7498 6.34261 12.5465 6.69912C12.7171 6.79122 12.8904 6.90546 12.8221 6.61144V5.7945C11.4897 5.4678 10.0718 5.34758 8.73318 5.70299C8.34572 5.81564 7.96822 5.98647 7.65348 6.24868V6.24859Z" fill="url(#paint2_linear_1_877)"/>
<defs>
<linearGradient id="paint0_linear_1_877" x1="14.1597" y1="7.67279" x2="20.0441" y2="7.67279" gradientUnits="userSpaceOnUse">
<stop stop-color="#007B40"/>
<stop offset="1" stop-color="#55B330"/>
</linearGradient>
<linearGradient id="paint1_linear_1_877" x1="0.883252" y1="8.12916" x2="6.79243" y2="8.12916" gradientUnits="userSpaceOnUse">
<stop stop-color="#1D2970"/>
<stop offset="1" stop-color="#006DBA"/>
</linearGradient>
<linearGradient id="paint2_linear_1_877" x1="7.59552" y1="7.81575" x2="13.4838" y2="7.81575" gradientUnits="userSpaceOnUse">
<stop stop-color="#6E2B2F"/>
<stop offset="1" stop-color="#E30138"/>
</linearGradient>
</defs>
</svg>
