<svg width="13" height="17" viewBox="0 0 13 17" fill="none" xmlns="http://www.w3.org/2000/svg">
<path d="M12.5167 1.85001C12.3583 1.69168 12.1208 1.61251 11.8833 1.69168C10.1417 2.08751 8.39999 1.69168 6.97499 0.662512C6.73749 0.504179 6.34166 0.504179 6.10416 0.662512C4.59999 1.69168 2.85832 2.08751 1.11666 1.69168C0.720823 1.61251 0.245823 1.92918 0.166656 2.32501C0.166656 2.40418 0.166656 2.40418 0.166656 2.48335V8.42084C0.166656 10.7167 1.27499 12.8542 3.17499 14.2L6.10416 16.2583C6.34166 16.4167 6.73749 16.4167 7.05416 16.2583L9.98332 14.2C11.8833 12.8542 12.9917 10.7167 12.9917 8.42084V2.48335C12.8333 2.24585 12.7542 2.00835 12.5167 1.85001ZM8.08332 9.29168H7.29166V10.0833C7.29166 10.5583 6.97499 10.875 6.49999 10.875C6.02499 10.875 5.70832 10.5583 5.70832 10.0833V9.29168H4.91666C4.44166 9.29168 4.12499 8.97501 4.12499 8.50001C4.12499 8.02501 4.44166 7.70835 4.91666 7.70835H5.70832V6.91668C5.70832 6.44168 6.02499 6.12501 6.49999 6.12501C6.97499 6.12501 7.29166 6.44168 7.29166 6.91668V7.70835H8.08332C8.55832 7.70835 8.87499 8.02501 8.87499 8.50001C8.87499 8.97501 8.55832 9.29168 8.08332 9.29168Z" fill="#0079F0"/>
</svg>
