<svg width="148" height="125" viewBox="0 0 148 125" fill="none" xmlns="http://www.w3.org/2000/svg">
<rect width="148" height="125" rx="15" fill="url(#paint0_linear_1_860)"/>
<g clip-path="url(#clip0_1_860)">
<path d="M91.1319 56.5817L85.2246 80.3807H94.8088L100.953 55.585L91.1319 56.5817Z" fill="white"/>
<path d="M122.727 55.5372C119.871 55.2595 115.414 56.132 113.211 57.7961C113.161 56.8855 112.992 56.1699 112.796 55.4375L104.313 56.4674C104.65 58.8152 104.318 61.4206 103.485 64.9263L99.6836 80.3816H109.268L113.191 64.6128C114.151 63.2449 115.678 62.3302 116.968 62.3302C118.565 62.3302 118.955 63.4896 118.459 65.3916L114.777 80.3816H124.361L128.474 64.1014C129.454 59.6884 128.009 56.0511 122.727 55.5372Z" fill="white"/>
<path d="M102.525 48.867C102.525 46.3141 100.275 44.2344 97.3986 44.2344C94.469 44.2344 92.0625 46.314 92.0625 48.867C92.0625 51.4192 94.4169 53.5005 97.2414 53.5005C100.17 53.5007 102.525 51.4194 102.525 48.867Z" fill="#FFD300"/>
<path fill-rule="evenodd" clip-rule="evenodd" d="M79.5412 55.8422L76.5114 62.7862C75.3903 65.3949 74.4073 67.8513 73.5444 70.2611L73.4266 55.8422H64.7776L57.6127 70.3821L58.388 55.5098L48.8594 56.6875L50.7869 80.3815H59.2149C59.2149 80.3815 65.6079 67.5973 66.1804 66.1173L66.2657 80.3815H74.913L89.1812 55.8422H79.5412Z" fill="white"/>
<path fill-rule="evenodd" clip-rule="evenodd" d="M38.5412 55.2237C36.0528 55.2237 34.1897 55.8703 33.0924 56.4764C34.6597 51.6599 35.0093 47.2142 35.0093 47.2142L35.0088 47.2147C35.076 46.493 35.0915 45.6346 35.0719 45.0684L25.0281 46.2788C25.141 47.8759 24.9045 50.4006 23.6135 55.7948L18.7662 75.6738C18.5461 76.6251 17.9954 78.4324 17.5547 79.0976C20.5843 80.0966 24.0546 81.0002 29.7827 81.0002C32.923 81.0002 35.4015 80.4291 37.9355 78.9546C42.2871 76.4346 44.9736 71.8967 46.0852 67.4939C48.1641 59.2632 44.7655 55.2237 38.5412 55.2237ZM36.0076 67.9223C34.9057 72.4874 33.4732 74.5322 31.0499 74.5322C30.0586 74.5322 29.2322 74.2939 28.792 73.9615L31.4354 63.0711C31.9314 62.6432 32.8128 61.8821 34.2453 61.8821C36.3933 61.8819 37.164 63.0709 36.0076 67.9223Z" fill="white"/>
</g>
<defs>
<linearGradient id="paint0_linear_1_860" x1="74" y1="0" x2="139.247" y2="125.364" gradientUnits="userSpaceOnUse">
<stop stop-color="#313446"/>
<stop offset="1" stop-color="#070B1F"/>
</linearGradient>
<clipPath id="clip0_1_860">
<rect width="112" height="37" fill="white" transform="translate(17 44)"/>
</clipPath>
</defs>
</svg>
