<svg width="27" height="21" viewBox="0 0 27 21" fill="none" xmlns="http://www.w3.org/2000/svg">
<path fill-rule="evenodd" clip-rule="evenodd" d="M7.86708 17.8496V18.9063V19.9631H7.40501V19.7065C7.25845 19.8968 7.03607 20.0162 6.73379 20.0162C6.13789 20.0162 5.67073 19.5521 5.67073 18.9063C5.67073 18.2611 6.13789 17.7965 6.73379 17.7965C7.03607 17.7965 7.25845 17.9159 7.40501 18.1062V17.8496H7.86708ZM6.79128 18.2297C6.3913 18.2297 6.14653 18.5349 6.14653 18.9063C6.14653 19.2778 6.3913 19.583 6.79128 19.583C7.17345 19.583 7.43145 19.291 7.43145 18.9063C7.43145 18.5217 7.17345 18.2297 6.79128 18.2297ZM23.4817 18.9063C23.4817 18.5349 23.7265 18.2297 24.1264 18.2297C24.5091 18.2297 24.7666 18.5217 24.7666 18.9063C24.7666 19.291 24.5091 19.583 24.1264 19.583C23.7265 19.583 23.4817 19.2778 23.4817 18.9063ZM25.2027 17.0009V18.9063V19.9631H24.7402V19.7065C24.5936 19.8968 24.3712 20.0162 24.0689 20.0162C23.473 20.0162 23.0059 19.5521 23.0059 18.9063C23.0059 18.2611 23.473 17.7965 24.0689 17.7965C24.3712 17.7965 24.5936 17.9159 24.7402 18.1062V17.0009H25.2027ZM13.6027 18.2079C13.9004 18.2079 14.0917 18.3937 14.1406 18.7206H13.0379C13.0872 18.4154 13.2735 18.2079 13.6027 18.2079ZM12.5534 18.9063C12.5534 18.2474 12.989 17.7965 13.6119 17.7965C14.2073 17.7965 14.6164 18.2474 14.621 18.9063C14.621 18.9681 14.6164 19.0258 14.6118 19.083H13.0338C13.1004 19.4636 13.3717 19.6007 13.6694 19.6007C13.8826 19.6007 14.1096 19.5207 14.2877 19.3795L14.5141 19.7201C14.2561 19.9367 13.963 20.0162 13.6429 20.0162C13.0068 20.0162 12.5534 19.5784 12.5534 18.9063ZM19.1913 18.9063C19.1913 18.5349 19.4361 18.2297 19.836 18.2297C20.2182 18.2297 20.4762 18.5217 20.4762 18.9063C20.4762 19.291 20.2182 19.583 19.836 19.583C19.4361 19.583 19.1913 19.2778 19.1913 18.9063ZM20.9118 17.8496V18.9063V19.9631H20.4498V19.7065C20.3027 19.8968 20.0808 20.0162 19.7785 20.0162C19.1826 20.0162 18.7155 19.5521 18.7155 18.9063C18.7155 18.2611 19.1826 17.7965 19.7785 17.7965C20.0808 17.7965 20.3027 17.9159 20.4498 18.1062V17.8496H20.9118ZM16.5817 18.9063C16.5817 19.5476 17.0305 20.0162 17.7155 20.0162C18.0356 20.0162 18.2488 19.9454 18.4798 19.7642L18.258 19.3927C18.0844 19.5167 17.9022 19.583 17.7017 19.583C17.3328 19.5784 17.0616 19.3132 17.0616 18.9063C17.0616 18.4994 17.3328 18.2343 17.7017 18.2297C17.9022 18.2297 18.0844 18.296 18.258 18.42L18.4798 18.0485C18.2488 17.8673 18.0356 17.7965 17.7155 17.7965C17.0305 17.7965 16.5817 18.2651 16.5817 18.9063ZM21.9789 18.1062C22.099 17.9205 22.2725 17.7965 22.5392 17.7965C22.6328 17.7965 22.7661 17.8142 22.8684 17.8542L22.7259 18.2874C22.6282 18.2474 22.5305 18.2343 22.4369 18.2343C22.1346 18.2343 21.9835 18.4286 21.9835 18.7783V19.9631H21.5209V17.8496H21.9789V18.1062ZM10.1524 18.0176C9.93006 17.8719 9.62371 17.7965 9.28581 17.7965C8.74741 17.7965 8.40086 18.0531 8.40086 18.4731C8.40086 18.8178 8.65886 19.0303 9.13416 19.0966L9.35247 19.1275C9.6059 19.1629 9.72549 19.2292 9.72549 19.3487C9.72549 19.5121 9.55654 19.6053 9.24103 19.6053C8.92094 19.6053 8.68991 19.5035 8.53419 19.3841L8.31639 19.7419C8.56981 19.9276 8.8899 20.0162 9.23645 20.0162C9.85016 20.0162 10.2059 19.7287 10.2059 19.3264C10.2059 18.9549 9.92599 18.7606 9.46341 18.6943L9.24561 18.6629C9.04562 18.6366 8.88532 18.5971 8.88532 18.4554C8.88532 18.3005 9.03646 18.2079 9.28988 18.2079C9.56112 18.2079 9.8237 18.3097 9.95245 18.3891L10.1524 18.0176ZM15.5548 18.1062C15.6744 17.9205 15.8479 17.7965 16.1146 17.7965C16.2082 17.7965 16.3415 17.8142 16.4438 17.8542L16.3013 18.2874C16.2036 18.2474 16.1059 18.2343 16.0123 18.2343C15.71 18.2343 15.5589 18.4286 15.5589 18.7783V19.9631H15.0968V17.8496H15.5548V18.1062ZM12.1711 17.8496H11.4154V17.2084H10.9483V17.8496H10.5173V18.2697H10.9483V19.2338C10.9483 19.7242 11.1396 20.0162 11.6862 20.0162C11.8867 20.0162 12.1177 19.9545 12.2643 19.8527L12.1309 19.459C11.993 19.5385 11.8419 19.5784 11.7218 19.5784C11.4908 19.5784 11.4154 19.4367 11.4154 19.2247V18.2697H12.1711V17.8496ZM5.26206 18.6366V19.9631H4.79491V18.7869C4.79491 18.4286 4.64377 18.2297 4.32826 18.2297C4.0214 18.2297 3.80818 18.4245 3.80818 18.7915V19.9631H3.34103V18.7869C3.34103 18.4286 3.18582 18.2297 2.87896 18.2297C2.56294 18.2297 2.35837 18.4245 2.35837 18.7915V19.9631H1.89172L1.89172 17.8496H2.3543L2.3543 18.1103C2.52783 17.8628 2.7497 17.7965 2.97666 17.7965C3.30133 17.7965 3.53237 17.9382 3.67892 18.1725C3.87485 17.8759 4.15473 17.7919 4.42597 17.7965C4.94198 17.801 5.26206 18.1371 5.26206 18.6366Z" fill="#231F20"/>
<path d="M17.0024 14.2584H9.99915V1.74177H17.0024V14.2584Z" fill="#FF5F00"/>
<path d="M10.4435 8.00036C10.4435 5.4613 11.6389 3.19957 13.5004 1.74203C12.1391 0.676197 10.4211 0.0400395 8.554 0.0400395C4.13384 0.0400395 0.550781 3.60394 0.550781 8.00036C0.550781 12.3968 4.13384 15.9607 8.554 15.9607C10.4211 15.9607 12.1391 15.3245 13.5004 14.2587C11.6389 12.8012 10.4435 10.5394 10.4435 8.00036" fill="#EB001B"/>
<path d="M26.4505 8.00036C26.4505 12.3968 22.8674 15.9607 18.4472 15.9607C16.5801 15.9607 14.8621 15.3245 13.5004 14.2587C15.3624 12.8012 16.5577 10.5394 16.5577 8.00036C16.5577 5.4613 15.3624 3.19957 13.5004 1.74203C14.8621 0.676197 16.5801 0.0400395 18.4472 0.0400395C22.8674 0.0400395 26.4505 3.60394 26.4505 8.00036" fill="#F79E1B"/>
</svg>
