<svg width="16" height="18" viewBox="0 0 16 18" fill="none" xmlns="http://www.w3.org/2000/svg">
<path d="M13.7958 1.5883C14.0399 1.34423 14.0399 0.948498 13.7958 0.704421C13.5517 0.460343 13.156 0.460343 12.9119 0.704421L12.3227 1.29368C11.9098 1.70654 11.9309 2.34809 12.2911 2.75002C14.7098 5.44899 14.6221 9.60082 12.028 12.1949C10.6863 13.5366 8.92794 14.2078 7.16938 14.2086L7.16668 14.2085L7.16414 14.2086C5.52436 14.208 3.8848 13.6245 2.58316 12.458C2.18122 12.0978 1.53967 12.0767 1.12681 12.4895L0.537551 13.0788C0.293473 13.3229 0.293473 13.7186 0.53755 13.9627C0.781628 14.2067 1.17736 14.2067 1.42143 13.9627L1.88014 13.504C3.22996 14.6628 4.86979 15.3063 6.54168 15.4346V16.7085H5.08334C4.73817 16.7085 4.45834 16.9884 4.45834 17.3335C4.45834 17.6787 4.73817 17.9585 5.08334 17.9585H9.25001C9.59519 17.9585 9.87501 17.6787 9.87501 17.3335C9.87501 16.9884 9.59519 16.7085 9.25001 16.7085H7.79168V15.4346C9.65808 15.2915 11.4845 14.5063 12.9119 13.0788C15.9362 10.0545 16.0779 5.23958 13.3371 2.04701L13.7958 1.5883Z" fill="#0079F0"/>
<path fill-rule="evenodd" clip-rule="evenodd" d="M1.75001 7.33355C1.75001 4.342 4.17513 1.91688 7.16668 1.91688C10.1582 1.91688 12.5833 4.342 12.5833 7.33355C12.5833 10.3251 10.1582 12.7502 7.16668 12.7502C4.17513 12.7502 1.75001 10.3251 1.75001 7.33355ZM8.83334 4.20855C7.56769 4.20855 6.54168 5.23456 6.54168 6.50021C6.54168 7.76587 7.56769 8.79188 8.83334 8.79188C10.099 8.79188 11.125 7.76587 11.125 6.50021C11.125 5.23456 10.099 4.20855 8.83334 4.20855ZM3.20834 9.41688C3.20834 8.84158 3.67471 8.37521 4.25001 8.37521C4.82531 8.37521 5.29168 8.84158 5.29168 9.41688C5.29168 9.99218 4.82531 10.4585 4.25001 10.4585C3.67471 10.4585 3.20834 9.99218 3.20834 9.41688Z" fill="#0079F0"/>
</svg>
