<svg width="17" height="17" viewBox="0 0 17 17" fill="none" xmlns="http://www.w3.org/2000/svg">
<path d="M16.0084 1.4875C15.9375 1.275 15.725 1.0625 15.5125 0.991667C12.5375 0.2125 9.49169 1.13333 7.43752 3.54167L6.65836 4.4625L4.74586 4.0375C3.82502 3.68333 2.83336 4.10833 2.40836 4.95833L0.850024 7.72083C0.708358 7.93333 0.708358 8.14583 0.850024 8.35833C0.920858 8.57083 1.13336 8.7125 1.34586 8.78333L3.54169 9.27917C3.32919 9.84583 3.25836 10.4125 3.11669 10.9792C3.11669 11.1917 3.18752 11.4042 3.32919 11.5458L5.52502 13.7417C5.66669 13.8833 5.80836 13.9542 6.02086 13.9542H6.09169C6.72919 13.8833 7.29586 13.8125 7.86252 13.6L8.28752 15.725C8.35836 15.9375 8.50002 16.15 8.71252 16.2208C8.78336 16.2917 8.92502 16.2917 8.99586 16.2917C9.13752 16.2917 9.20836 16.2917 9.35002 16.2208L12.1125 14.6625C12.8917 14.2375 13.3167 13.2458 13.1042 12.325L12.6084 10.3417L13.4584 9.5625C15.7959 7.57917 16.7875 4.39167 16.0084 1.4875ZM5.17086 6.23333C4.74586 6.8 4.32086 7.36667 4.03752 7.93333L2.55002 7.57917L3.61252 5.66667C3.75419 5.38333 4.03752 5.3125 4.39169 5.38333L5.59586 5.66667L5.17086 6.23333ZM11.3334 13.3875L9.42086 14.45L9.13752 13.0333C9.77502 12.75 10.3417 12.325 10.8375 11.9L11.3334 11.4042L11.6167 12.6083C11.7584 12.9625 11.5459 13.3167 11.3334 13.3875ZM11.8292 6.23333C11.2625 6.23333 10.7667 5.7375 10.7667 5.17083C10.7667 4.60417 11.2625 4.10833 11.8292 4.10833C12.3959 4.10833 12.8917 4.60417 12.8917 5.17083C12.8917 5.7375 12.4667 6.23333 11.8292 6.23333Z" fill="#0079F0"/>
</svg>
