<svg width="18" height="16" viewBox="0 0 18 16" fill="none" xmlns="http://www.w3.org/2000/svg">
<path d="M17.3334 6.41667C17.4167 6 17.0834 5.5 16.6667 5.5L11.9167 4.83334L9.75002 0.500005C9.66669 0.333338 9.58335 0.250005 9.41669 0.166671C9.00002 -0.0833288 8.50002 0.083338 8.25002 0.500005L6.16669 4.83334L1.41669 5.5C1.16669 5.5 1.00002 5.58334 0.916687 5.75C0.583354 6.08334 0.583354 6.58334 0.916687 6.91667L4.33335 10.25L3.50002 15C3.50002 15.1667 3.50002 15.3333 3.58335 15.5C3.83335 15.9167 4.33335 16.0833 4.75002 15.8333L9.00002 13.5833L13.25 15.8333C13.3334 15.9167 13.5 15.9167 13.6667 15.9167C13.75 15.9167 13.75 15.9167 13.8334 15.9167C14.25 15.8333 14.5834 15.4167 14.5 14.9167L13.6667 10.1667L17.0834 6.83334C17.25 6.75 17.3334 6.58334 17.3334 6.41667Z" fill="#FF922E"/>
</svg>
