<svg width="15" height="18" viewBox="0 0 15 18" fill="none" xmlns="http://www.w3.org/2000/svg">
<path d="M6.80934 0.906265C6.33225 0.906273 5.88534 1.13966 5.61271 1.53117L1.20449 7.86148C0.376705 9.0502 0.00775697 10.4986 0.165982 11.9385L0.504963 15.0233C0.649821 16.3415 1.68469 17.3857 3.00157 17.5424L5.20683 17.8047C6.89085 18.005 8.59832 17.8314 10.2075 17.2961C11.3339 16.9215 12.2361 16.0666 12.6708 14.9619L14.4506 10.439C14.5367 10.2202 14.5962 9.99186 14.6278 9.75889C14.9031 7.73059 13.0704 6.05025 11.0736 6.50019L7.01322 7.4151L8.22141 2.7285C8.45934 1.80558 7.76243 0.906249 6.80934 0.906265Z" fill="#53AF1B"/>
</svg>
