<svg width="15" height="18" viewBox="0 0 15 18" fill="none" xmlns="http://www.w3.org/2000/svg">
<path d="M8.19067 17.0937C8.66775 17.0937 9.11466 16.8603 9.3873 16.4688L13.7955 10.1385C14.6233 8.9498 14.9922 7.50136 14.834 6.06148L14.495 2.97668C14.3502 1.65845 13.3153 0.614279 11.9984 0.457626L9.79318 0.195295C8.10916 -0.00502968 6.40168 0.168617 4.79247 0.703857C3.66608 1.0785 2.76388 1.93344 2.32921 3.03805L0.549405 7.56104C0.463316 7.77982 0.40382 8.00814 0.372196 8.24111C0.0968676 10.2694 1.92961 11.9498 3.92645 11.4998L7.98678 10.5849L6.77859 15.2715C6.54067 16.1944 7.23757 17.0938 8.19067 17.0937Z" fill="#FF4C34"/>
</svg>
