<svg width="24" height="16" viewBox="0 0 24 16" fill="none" xmlns="http://www.w3.org/2000/svg">
<path d="M4.58775 0.61705H10.3154C11.115 0.61705 11.6122 1.28867 11.4257 2.11539L8.75908 13.9145C8.57089 14.7384 7.77038 15.4106 6.97029 15.4106H1.24317C0.444759 15.4106 -0.0536396 14.7384 0.132876 13.9145L2.80063 2.11539C2.98715 1.28867 3.78724 0.61705 4.58775 0.61705Z" fill="#E21836"/>
<path d="M9.83849 0.616211H16.4252C17.2246 0.616211 16.8641 1.28783 16.676 2.11455L14.0098 13.9137C13.8227 14.7375 13.8811 15.4097 13.08 15.4097H6.49336C5.69229 15.4097 5.19654 14.7375 5.38473 13.9137L8.05082 2.11455C8.24012 1.28783 9.03854 0.616211 9.83849 0.616211Z" fill="#00447C"/>
<path d="M16.164 0.616211H21.8917C22.6923 0.616211 23.1896 1.28783 23.0016 2.11455L20.3354 13.9137C20.1472 14.7375 19.3461 15.4097 18.5456 15.4097H12.8206C12.0195 15.4097 11.5226 14.7375 11.7103 13.9137L14.3769 2.11455C14.5634 1.28783 15.363 0.616211 16.164 0.616211Z" fill="#007B84"/>
<path d="M6.08322 4.39745C5.49421 4.40363 5.32026 4.39745 5.2647 4.38392C5.24334 4.48852 4.84588 6.37807 4.84476 6.37965C4.75918 6.76193 4.69692 7.03444 4.48541 7.2104C4.36535 7.3127 4.22518 7.36205 4.06268 7.36205C3.80147 7.36205 3.6493 7.22839 3.62375 6.97487L3.61887 6.88783C3.61887 6.88783 3.69844 6.37577 3.69844 6.37289C3.69844 6.37289 4.11559 4.65096 4.19028 4.42335C4.19419 4.4104 4.19531 4.40363 4.19628 4.39745C3.38433 4.40478 3.24039 4.39745 3.23048 4.38392C3.22503 4.40248 3.20493 4.50924 3.20493 4.50924L2.77899 6.45001L2.74241 6.6146L2.67163 7.15299C2.67163 7.3127 2.70207 7.44305 2.76265 7.55326C2.95671 7.90274 3.51025 7.95511 3.82339 7.95511C4.22686 7.95511 4.60533 7.86677 4.86109 7.70549C5.30504 7.43514 5.4212 7.01257 5.52479 6.63705L5.57281 6.4444C5.57281 6.4444 6.00252 4.656 6.07554 4.42335C6.07833 4.4104 6.07945 4.40363 6.08322 4.39745ZM7.54528 5.84017C7.44169 5.84017 7.25239 5.86607 7.08235 5.95196C7.02064 5.98462 6.96228 6.02232 6.90072 6.05987L6.95628 5.85312L6.92585 5.8183C6.56524 5.89355 6.48455 5.90362 6.15144 5.95196L6.12352 5.9711C6.08485 6.30158 6.05051 6.55006 5.90713 7.19967C5.85254 7.43908 5.79586 7.6808 5.73904 7.91963L5.7544 7.94999C6.09574 7.93143 6.19933 7.93143 6.49599 7.93647L6.52001 7.90956C6.5577 7.71058 6.56259 7.66396 6.64607 7.26096C6.6853 7.06989 6.76711 6.65006 6.80746 6.50057C6.88159 6.46517 6.95474 6.43035 7.02455 6.43035C7.19082 6.43035 7.17058 6.57984 7.16416 6.63941C7.15703 6.7394 7.09645 7.06601 7.03432 7.34642L6.99286 7.52742C6.96396 7.66108 6.93227 7.79101 6.90337 7.92352L6.91593 7.94999C7.25239 7.93143 7.355 7.93143 7.64231 7.93647L7.6761 7.90956C7.72803 7.59879 7.74325 7.51562 7.83539 7.06313L7.88174 6.85523C7.97178 6.44834 8.01702 6.24202 7.94889 6.07397C7.87685 5.88563 7.70402 5.84017 7.54528 5.84017ZM9.17858 6.26617C8.99974 6.30157 8.88568 6.32516 8.77232 6.34042C8.65994 6.35898 8.55034 6.37581 8.37751 6.40056L8.36383 6.41336L8.35126 6.42358C8.33325 6.55623 8.32069 6.6709 8.29682 6.80572C8.27657 6.94513 8.24544 7.10354 8.19476 7.33116C8.15553 7.50539 8.13529 7.56611 8.11295 7.6274C8.09118 7.68869 8.06716 7.74826 8.02305 7.91962L8.03338 7.93545L8.04203 7.94998C8.20356 7.94206 8.30924 7.93645 8.41786 7.93545C8.52633 7.93142 8.63872 7.93545 8.81267 7.93645L8.82788 7.92365L8.84422 7.90955C8.86935 7.75502 8.87312 7.71344 8.88847 7.63805C8.90369 7.55719 8.92994 7.44525 8.9943 7.14628C9.02473 7.00585 9.05865 6.86586 9.09021 6.72256C9.12301 6.57983 9.15736 6.43926 9.19003 6.29884L9.18514 6.28186L9.17858 6.26617ZM9.18239 5.69179C9.01989 5.59294 8.73467 5.62431 8.54271 5.76085C8.35131 5.89465 8.32953 6.08457 8.49147 6.18471C8.65118 6.28082 8.93752 6.25219 9.1278 6.1145C9.31878 5.97782 9.34266 5.78962 9.18239 5.69179ZM10.1652 7.98095C10.4939 7.98095 10.8309 7.88758 11.0846 7.61047C11.2798 7.38573 11.3693 7.05136 11.4003 6.91367C11.5012 6.45729 11.4226 6.2442 11.3239 6.11443C11.174 5.9166 10.909 5.85315 10.6341 5.85315C10.4688 5.85315 10.0751 5.86998 9.76755 6.16219C9.54669 6.37298 9.44464 6.659 9.38307 6.93324C9.32095 7.21265 9.24947 7.71564 9.69831 7.90283C9.8368 7.96412 10.0364 7.98095 10.1652 7.98095ZM10.1395 6.9541C10.2153 6.6085 10.3048 6.31845 10.5332 6.31845C10.7121 6.31845 10.7251 6.53426 10.6455 6.88101C10.6313 6.95798 10.566 7.24416 10.4776 7.36602C10.4159 7.45594 10.3429 7.51047 10.2622 7.51047C10.2382 7.51047 10.0954 7.51047 10.0931 7.29192C10.092 7.18402 10.1134 7.0738 10.1395 6.9541ZM12.2221 7.93651L12.2478 7.90961C12.2843 7.71062 12.2903 7.66386 12.371 7.261C12.4113 7.06993 12.4948 6.6501 12.534 6.50061C12.6083 6.46507 12.6802 6.43025 12.7522 6.43025C12.9174 6.43025 12.8973 6.57974 12.8907 6.63931C12.8847 6.73945 12.8241 7.06591 12.7609 7.34632L12.7216 7.52732C12.6916 7.66113 12.659 7.79091 12.6301 7.92356L12.6426 7.95003C12.9802 7.93147 13.0789 7.93147 13.3679 7.93651L13.4028 7.90961C13.4535 7.59869 13.4671 7.51552 13.5621 7.06317L13.6073 6.85512C13.6978 6.44824 13.7436 6.24206 13.6766 6.07401C13.6024 5.88568 13.4285 5.84021 13.272 5.84021C13.1683 5.84021 12.978 5.86596 12.8089 5.952C12.7485 5.98466 12.6879 6.02222 12.6284 6.05991L12.6802 5.85316L12.6524 5.8182C12.2919 5.89359 12.2096 5.90366 11.8769 5.952L11.8513 5.97114C11.811 6.30163 11.7782 6.54996 11.6348 7.19971C11.5802 7.43912 11.5235 7.68084 11.4669 7.91968L11.4821 7.95003C11.824 7.93147 11.926 7.93147 12.2221 7.93651ZM14.7023 7.94996C14.7235 7.84321 14.8496 7.21043 14.8507 7.21043C14.8507 7.21043 14.9581 6.74614 14.9646 6.7293C14.9646 6.7293 14.9984 6.68096 15.0322 6.66182H15.0819C15.5509 6.66182 16.0804 6.66182 16.4954 6.34716C16.7779 6.13135 16.9709 5.81266 17.0571 5.42534C17.0794 5.33038 17.0959 5.21744 17.0959 5.10449C17.0959 4.95615 17.067 4.8094 16.9835 4.69473C16.7719 4.38956 16.3504 4.38395 15.8639 4.38165C15.8623 4.38165 15.624 4.38395 15.624 4.38395C15.0012 4.39186 14.7515 4.38956 14.6489 4.37661C14.6402 4.42337 14.6239 4.50654 14.6239 4.50654C14.6239 4.50654 14.4008 5.57209 14.4008 5.57382C14.4008 5.57382 13.8669 7.83932 13.8418 7.94608C14.3856 7.93932 14.6085 7.93932 14.7023 7.94996ZM15.1157 6.05711C15.1157 6.05711 15.3529 4.99371 15.3518 4.99773L15.3595 4.9432L15.3628 4.90162L15.4576 4.9117C15.4576 4.9117 15.9468 4.955 15.9582 4.95615C16.1513 5.03313 16.2309 5.23154 16.1753 5.49052C16.1246 5.72719 15.9757 5.92618 15.7843 6.02229C15.6267 6.10372 15.4336 6.11048 15.2346 6.11048H15.1059L15.1157 6.05711ZM16.5925 6.97379C16.5298 7.24918 16.4578 7.75217 16.9044 7.93145C17.0468 7.99389 17.1744 8.01245 17.3041 8.00569C17.4411 7.99806 17.568 7.92727 17.6855 7.82541C17.6749 7.86728 17.6643 7.90914 17.6537 7.95116L17.6739 7.97806C17.9952 7.96411 18.0948 7.96411 18.4429 7.96684L18.4744 7.94209C18.5253 7.63419 18.5731 7.33522 18.7052 6.74618C18.7696 6.46404 18.8338 6.18462 18.8998 5.90363L18.8895 5.8727C18.5301 5.94133 18.4341 5.956 18.0884 6.0065L18.0622 6.02852C18.0587 6.05715 18.0551 6.08463 18.0517 6.11211C17.998 6.02262 17.9201 5.94622 17.7999 5.8986C17.6461 5.8363 17.2851 5.91658 16.9748 6.20779C16.7567 6.41569 16.652 6.70057 16.5925 6.97379ZM17.3472 6.99063C17.4242 6.65122 17.5125 6.36404 17.7415 6.36404C17.8863 6.36404 17.9625 6.50173 17.947 6.73654C17.9347 6.7951 17.9214 6.85682 17.9057 6.9266C17.8828 7.02746 17.8579 7.12746 17.8338 7.2276C17.8092 7.29608 17.7806 7.36068 17.7492 7.4037C17.6903 7.48974 17.5501 7.54312 17.4694 7.54312C17.4465 7.54312 17.3052 7.54312 17.3003 7.32845C17.2992 7.22155 17.3206 7.11149 17.3472 6.99063ZM21.2884 5.86995L21.2606 5.83729C20.9051 5.91153 20.8407 5.92333 20.514 5.96879L20.49 5.99354C20.4889 5.99757 20.4879 6.00376 20.4862 6.00937L20.4851 6.00376C20.2419 6.582 20.2491 6.45726 20.0511 6.91249C20.05 6.89177 20.05 6.87882 20.0489 6.85681L19.9993 5.86995L19.9682 5.83729C19.5957 5.91153 19.5869 5.92333 19.2429 5.96879L19.2161 5.99354C19.2123 6.00534 19.2123 6.01829 19.2101 6.03239L19.2123 6.03742C19.2553 6.26389 19.245 6.21339 19.2881 6.57078C19.3082 6.74617 19.335 6.92256 19.3551 7.09579C19.3891 7.3857 19.4081 7.52843 19.4495 7.97085C19.2172 8.36594 19.1622 8.51543 18.9386 8.86218L18.9401 8.86563L18.7826 9.12231C18.7646 9.14936 18.7483 9.16792 18.7254 9.17583C18.7002 9.18863 18.6676 9.19094 18.6222 9.19094H18.535L18.4053 9.63552L18.8502 9.64343C19.1114 9.64228 19.2756 9.51639 19.3639 9.34719L19.6437 8.85311H19.6392L19.6687 8.81829C19.8569 8.40076 21.2884 5.86995 21.2884 5.86995ZM16.5925 11.7089H16.4038L17.1024 9.32755H17.3341L17.4077 9.08224L17.4148 9.35503C17.4061 9.52365 17.5349 9.67314 17.873 9.6484H18.264L18.3986 9.18986H18.2515C18.1669 9.18986 18.1276 9.16784 18.1325 9.12065L18.1254 8.84311H17.4013V8.84455C17.1671 8.84959 16.468 8.86772 16.3264 8.90656C16.1551 8.95203 15.9746 9.08583 15.9746 9.08583L16.0455 8.84023H15.3682L15.227 9.32755L14.5191 11.7453H14.3817L14.247 12.2005H15.5961L15.5509 12.3523H16.2157L16.2598 12.2005H16.4463L16.5925 11.7089ZM16.039 9.81141C15.9305 9.84234 15.7286 9.93615 15.7286 9.93615L15.9082 9.32755H16.4463L16.3165 9.77098C16.3165 9.77098 16.1502 9.78105 16.039 9.81141ZM16.0493 10.6809C16.0493 10.6809 15.8802 10.7027 15.769 10.7286C15.6594 10.7629 15.4539 10.8708 15.4539 10.8708L15.6393 10.2374H16.1803L16.0493 10.6809ZM15.7477 11.7145H15.2079L15.3644 11.18H15.9026L15.7477 11.7145ZM17.0479 10.2374H17.826L17.7142 10.6107H16.9257L16.8073 11.0187H17.4973L16.9748 11.7768C16.9383 11.8325 16.9055 11.8522 16.869 11.8679C16.8324 11.887 16.7844 11.9094 16.7289 11.9094H16.5375L16.4059 12.3563H16.9066C17.1668 12.3563 17.3205 12.2343 17.434 12.0742L17.7922 11.5689L17.8692 12.0819C17.8855 12.1781 17.9525 12.2343 17.9979 12.2562C18.048 12.2821 18.0998 12.3265 18.173 12.3332C18.2514 12.3366 18.3081 12.3393 18.3458 12.3393H18.5918L18.7395 11.8392H18.6425C18.5867 11.8392 18.4908 11.8296 18.4745 11.8116C18.4582 11.7897 18.4582 11.7561 18.4494 11.7048L18.3713 11.1906H18.0518L18.1919 11.0187H18.9789L19.0999 10.6107H18.3713L18.4848 10.2374H19.2112L19.3459 9.77717H17.1803L17.0479 10.2374ZM10.4754 11.8184L10.657 11.1957H11.4035L11.5399 10.7326H10.7927L10.9068 10.3493H11.6369L11.7722 9.9008H9.9453L9.81281 10.3493H10.2279L10.1172 10.7326H9.70099L9.56306 11.2036H9.97797L9.73589 12.0275C9.70322 12.1365 9.75125 12.1781 9.78168 12.2287C9.81281 12.2781 9.84437 12.3108 9.91529 12.3293C9.98844 12.3461 10.0386 12.3562 10.1067 12.3562H10.9482L11.0982 11.8432L10.7251 11.896C10.6531 11.896 10.4536 11.887 10.4754 11.8184ZM10.561 8.83743L10.3718 9.18979C10.3314 9.26676 10.2949 9.31453 10.2621 9.33654C10.2332 9.3551 10.176 9.36287 10.093 9.36287H9.99435L9.86242 9.81364H10.1902C10.3478 9.81364 10.4689 9.75408 10.5267 9.72429C10.5888 9.69005 10.6051 9.70962 10.6532 9.66185L10.7639 9.563H11.7875L11.9233 9.09368H11.174L11.3048 8.83743H10.561ZM12.0722 11.8275C12.0547 11.8016 12.0673 11.7559 12.094 11.661L12.3737 10.7066H13.369C13.514 10.7045 13.6187 10.7028 13.6869 10.6977C13.76 10.6898 13.8396 10.6629 13.9263 10.6146C14.0158 10.5639 14.0616 10.5105 14.1003 10.4492C14.1434 10.3881 14.2126 10.2543 14.2721 10.048L14.6238 8.84026L13.591 8.84645C13.591 8.84645 13.2729 8.89479 13.1329 8.94817C12.9916 9.00774 12.7898 9.17406 12.7898 9.17406L12.883 8.843H12.245L11.3518 11.8959C11.3201 12.0145 11.2989 12.1005 11.294 12.1522C11.2923 12.2079 11.3621 12.263 11.4074 12.3046C11.4608 12.3461 11.5399 12.3394 11.6157 12.3461C11.6954 12.3523 11.8087 12.3562 11.9652 12.3562H12.4555L12.606 11.8325L12.1671 11.8752C12.1202 11.8752 12.0863 11.8493 12.0722 11.8275ZM12.5542 10.0621H13.5996L13.5332 10.2767C13.5238 10.2818 13.5015 10.2661 13.3951 10.279H12.4899L12.5542 10.0621ZM12.7637 9.34211H13.8178L13.742 9.60066C13.742 9.60066 13.2452 9.59562 13.1656 9.61073C12.8154 9.67317 12.6109 9.86597 12.6109 9.86597L12.7637 9.34211ZM13.5566 10.9956C13.5479 11.0277 13.5342 11.0472 13.5151 11.0619C13.4939 11.076 13.4595 11.0811 13.4083 11.0811H13.2593L13.2681 10.8196H12.6486L12.6234 12.0977C12.6225 12.1899 12.6311 12.2433 12.6966 12.286C12.7621 12.3394 12.9638 12.3462 13.2353 12.3462H13.6236L13.7637 11.8678L13.4258 11.8869L13.3134 11.8937C13.298 11.8869 13.2834 11.8807 13.267 11.8639C13.2528 11.8494 13.2288 11.8583 13.2327 11.7661L13.2353 11.4385L13.5898 11.4233C13.7812 11.4233 13.863 11.3592 13.9328 11.298C13.9994 11.2395 14.0212 11.1721 14.0463 11.0811L14.1058 10.791H13.6187L13.5566 10.9956Z" fill="#FEFEFE"/>
</svg>
